<svg width="400" height="400" xmlns="http://www.w3.org/2000/svg">
 <!-- Created with Method Draw - http://github.com/duopixel/Method-Draw/ -->

 <g>
  <title>background</title>
  <rect fill="#fff" id="canvas_background" height="402" width="402" y="-1" x="-1"/>
  <g display="none" overflow="visible" y="0" x="0" height="100%" width="100%" id="canvasGrid">
   <rect fill="url(#gridpattern)" stroke-width="0" y="0" x="0" height="100%" width="100%"/>
  </g>
 </g>
 <g>
  <title>Layer 1</title>
  <!-- Created with Method Draw - http://github.com/duopixel/Method-Draw/ -->
  <g stroke="null" transform="matrix(1.2865153857721956,0,0,1.2865153857721956,-327.95340694756123,-1797.2115645905233) " id="svg_22">
   <title stroke="null" transform="translate(0,2.2737367544323206e-13) translate(24.003904342651367,2.2737367544323206e-13) translate(-24.00390625,2.2737367544323206e-13) translate(-0.000008895417522580829,2.2737367544323206e-13) translate(0,2.2737367544323206e-13) translate(0.000010377987564424984,2.2737367544323206e-13) translate(0,3.4361634254455566) translate(0.007028862368315458,2.2737367544323206e-13) translate(-0.4318281412124634,2.2737367544323206e-13) translate(0.4318281412124634,2.2737367544323206e-13) translate(-0.4318281412124634,2.2737367544323206e-13) translate(0.4318281412124634,2.2737367544323206e-13) translate(-0.4318281412124634,2.2737367544323206e-13) translate(0.4318281412124634,2.2737367544323206e-13) translate(0.4318281412124634,2.2737367544323206e-13) translate(-0.4318281412124634,2.2737367544323206e-13) translate(0.4318281412124634,2.2737367544323206e-13) translate(-0.4318281412124634,-4.318281650543213) translate(11.227532386779785,44.04647445678711) translate(0,2.2737367544323206e-13) translate(-223.8572235107422,-140.975830078125) translate(221.53346252441406,152.5947265625) translate(-148.72177124023438,-190.5497589111328) translate(0,-56.76750183105469) translate(0,-56.76750183105469) translate(0,-56.76750183105469) translate(0,-56.76750183105469) translate(0,-56.76750183105469) translate(0,-56.76750183105469) translate(0,-56.76750183105469) translate(0,-113.53500366210938) translate(0,-56.76750183105469) translate(0,-56.76750183105469) translate(0,-56.767642974853516) translate(0,0.000144367222674191) translate(0,-113.53500366210938) translate(0,-56.767642974853516) translate(0,0.000144367222674191) translate(0,-56.767642974853516) translate(0,-56.76750183105469) translate(0,-170.30221557617188) translate(0,-113.53528594970703) translate(0,-113.53500366210938) translate(0,-113.53471374511719) translate(0,-0.000288734445348382) translate(0,0.000288734445348382) translate(0,-0.000288734445348382) translate(0,0.000288734445348382) translate(0,-0.000288734445348382) translate(0,0.000288734445348382) translate(0,-0.000288734445348382) translate(0,-56.76750183105469) translate(0,-170.30221557617188) translate(0,-321.6824951171875) translate(0,-63.915122985839844) translate(0.000018045902834273875,0) translate(-56.76750183105469,0) translate(-113.53500366210938,0) translate(-208.1475067138672,0) translate(-170.30250549316406,0) translate(-56.76750183105469,0) translate(-113.53492736816406,0) translate(-113.53514862060547,0) translate(0.000144367222674191,0) translate(-0.000144367222674191,0) translate(0.000144367222674191,0) translate(-0.000144367222674191,0) translate(0.000144367222674191,0) translate(-0.000144367222674191,0) translate(-56.76742935180664,0) translate(-56.76742935180664,0) translate(-56.76750183105469,0) translate(-170.30250549316406,0) translate(-56.76750183105469,0) translate(-113.53500366210938,0) translate(-56.76750183105469,0) translate(-56.76750183105469,0) translate(-56.76750183105469,0) translate(-170.30264282226562,0) translate(-113.53500366210938,0) translate(-113.53485870361328,0) translate(-113.53500366210938,0) translate(-56.767642974853516,0) translate(0.000144367222674191,0) translate(-56.76750183105469,0) translate(-113.53500366210938,0) translate(-56.76750183105469,0) translate(-56.76750183105469,0) translate(-56.76750183105469,0) translate(-170.30250549316406,0) translate(-56.76750183105469,0) translate(-170.30250549316406,0) translate(-170.30250549316406,0) translate(-208.1475067138672,0) translate(-435.2174987792969,0) translate(-170.30279541015625,0) translate(-170.30250549316406,0) translate(-113.53471374511719,0) translate(-170.30250549316406,0) translate(-56.76750183105469,0) translate(0.000288734445348382,0) translate(-56.76778793334961,0) translate(0.000288734445348382,0) translate(-0.000288734445348382,0) translate(0.000288734445348382,0) translate(-0.000288734445348382,0) translate(-113.53528594970703,0) translate(0.000288734445348382,0) translate(-0.000288734445348382,0) translate(0.000288734445348382,0) translate(-0.000288734445348382,0) translate(0.000288734445348382,0) translate(-0.000288734445348382,0) translate(0.000288734445348382,0) translate(0.000288734445348382,0) translate(-56.76750183105469,0) translate(-56.7680778503418,0) translate(0.000577468890696764,0) translate(-0.000577468890696764,0) translate(-56.76750183105469,0) translate(0.000577468890696764,0) translate(-113.53500366210938,0) translate(-56.76750183105469,0) translate(-56.76750183105469,0) translate(-0.000577468890696764,0) translate(-56.76692199707031,0) translate(-0.000577468890696764,0) translate(-113.53500366210938,0) translate(0.000577468890696764,0) translate(-56.76750183105469,0) translate(-56.76750183105469,0) translate(-56.76750183105469,0) translate(-0.000577468890696764,0) translate(113.53500366210938,0) translate(56.76750183105469,0) translate(56.7680778503418,0) translate(-0.000577468890696764,0) translate(0.000577468890696764,0) translate(-0.000577468890696764,0) translate(56.7680778503418,0) translate(7.162346363067627,0) translate(5197.52490234375,0) translate(0,3584.5) ">Layer 1</title>
   <metadata stroke="null" transform="translate(0,2.2737367544323206e-13) translate(24.003904342651367,2.2737367544323206e-13) translate(-24.00390625,2.2737367544323206e-13) translate(-0.000008895417522580829,2.2737367544323206e-13) translate(0,2.2737367544323206e-13) translate(0.000010377987564424984,2.2737367544323206e-13) translate(0,3.4361634254455566) translate(0.007028862368315458,2.2737367544323206e-13) translate(-0.4318281412124634,2.2737367544323206e-13) translate(0.4318281412124634,2.2737367544323206e-13) translate(-0.4318281412124634,2.2737367544323206e-13) translate(0.4318281412124634,2.2737367544323206e-13) translate(-0.4318281412124634,2.2737367544323206e-13) translate(0.4318281412124634,2.2737367544323206e-13) translate(0.4318281412124634,2.2737367544323206e-13) translate(-0.4318281412124634,2.2737367544323206e-13) translate(0.4318281412124634,2.2737367544323206e-13) translate(-0.4318281412124634,-4.318281650543213) translate(11.227532386779785,44.04647445678711) translate(0,2.2737367544323206e-13) translate(-223.8572235107422,-140.975830078125) translate(221.53346252441406,152.5947265625) translate(-148.72177124023438,-190.5497589111328) translate(0,-56.76750183105469) translate(0,-56.76750183105469) translate(0,-56.76750183105469) translate(0,-56.76750183105469) translate(0,-56.76750183105469) translate(0,-56.76750183105469) translate(0,-56.76750183105469) translate(0,-113.53500366210938) translate(0,-56.76750183105469) translate(0,-56.76750183105469) translate(0,-56.767642974853516) translate(0,0.000144367222674191) translate(0,-113.53500366210938) translate(0,-56.767642974853516) translate(0,0.000144367222674191) translate(0,-56.767642974853516) translate(0,-56.76750183105469) translate(0,-170.30221557617188) translate(0,-113.53528594970703) translate(0,-113.53500366210938) translate(0,-113.53471374511719) translate(0,-0.000288734445348382) translate(0,0.000288734445348382) translate(0,-0.000288734445348382) translate(0,0.000288734445348382) translate(0,-0.000288734445348382) translate(0,0.000288734445348382) translate(0,-0.000288734445348382) translate(0,-56.76750183105469) translate(0,-170.30221557617188) translate(0,-321.6824951171875) translate(0,-63.915122985839844) translate(0.000018045902834273875,0) translate(-56.76750183105469,0) translate(-113.53500366210938,0) translate(-208.1475067138672,0) translate(-170.30250549316406,0) translate(-56.76750183105469,0) translate(-113.53492736816406,0) translate(-113.53514862060547,0) translate(0.000144367222674191,0) translate(-0.000144367222674191,0) translate(0.000144367222674191,0) translate(-0.000144367222674191,0) translate(0.000144367222674191,0) translate(-0.000144367222674191,0) translate(-56.76742935180664,0) translate(-56.76742935180664,0) translate(-56.76750183105469,0) translate(-170.30250549316406,0) translate(-56.76750183105469,0) translate(-113.53500366210938,0) translate(-56.76750183105469,0) translate(-56.76750183105469,0) translate(-56.76750183105469,0) translate(-170.30264282226562,0) translate(-113.53500366210938,0) translate(-113.53485870361328,0) translate(-113.53500366210938,0) translate(-56.767642974853516,0) translate(0.000144367222674191,0) translate(-56.76750183105469,0) translate(-113.53500366210938,0) translate(-56.76750183105469,0) translate(-56.76750183105469,0) translate(-56.76750183105469,0) translate(-170.30250549316406,0) translate(-56.76750183105469,0) translate(-170.30250549316406,0) translate(-170.30250549316406,0) translate(-208.1475067138672,0) translate(-435.2174987792969,0) translate(-170.30279541015625,0) translate(-170.30250549316406,0) translate(-113.53471374511719,0) translate(-170.30250549316406,0) translate(-56.76750183105469,0) translate(0.000288734445348382,0) translate(-56.76778793334961,0) translate(0.000288734445348382,0) translate(-0.000288734445348382,0) translate(0.000288734445348382,0) translate(-0.000288734445348382,0) translate(-113.53528594970703,0) translate(0.000288734445348382,0) translate(-0.000288734445348382,0) translate(0.000288734445348382,0) translate(-0.000288734445348382,0) translate(0.000288734445348382,0) translate(-0.000288734445348382,0) translate(0.000288734445348382,0) translate(0.000288734445348382,0) translate(-56.76750183105469,0) translate(-56.7680778503418,0) translate(0.000577468890696764,0) translate(-0.000577468890696764,0) translate(-56.76750183105469,0) translate(0.000577468890696764,0) translate(-113.53500366210938,0) translate(-56.76750183105469,0) translate(-56.76750183105469,0) translate(-0.000577468890696764,0) translate(-56.76692199707031,0) translate(-0.000577468890696764,0) translate(-113.53500366210938,0) translate(0.000577468890696764,0) translate(-56.76750183105469,0) translate(-56.76750183105469,0) translate(-56.76750183105469,0) translate(-0.000577468890696764,0) translate(113.53500366210938,0) translate(56.76750183105469,0) translate(56.7680778503418,0) translate(-0.000577468890696764,0) translate(0.000577468890696764,0) translate(-0.000577468890696764,0) translate(56.7680778503418,0) translate(7.162346363067627,0) translate(5197.52490234375,0) translate(0,3584.5) " id="svg_16">image/svg+xml</metadata>
   <g stroke="null" id="svg_11">
    <g stroke="null" id="svg_12">
     <path stroke="null" id="svg_15" d="m278.919927,1648.530155l196.5705,0l0,-38.46686l-196.5705,0l0,38.46686z" fill-rule="nonzero" fill="#55bdee"/>
     <path stroke="null" id="svg_14" d="m345.266357,1571.620585l196.56313,0l0,-38.44763l-196.56313,0l0,38.44763z" fill-rule="nonzero" fill="#55bdee"/>
     <path stroke="null" id="svg_13" d="m278.919927,1494.724965l196.5705,0l0,-38.41642l-196.5705,0l0,38.41642z" fill-rule="nonzero" fill="#55bdee"/>
    </g>
   </g>
  </g>
 </g>
</svg>