<?xml version="1.0" encoding="utf-8"?>
<!-- Generator: Adobe Illustrator 19.2.0, SVG Export Plug-In . SVG Version: 6.00 Build 0)  -->
<svg version="1.1" id="Layer_1" xmlns="http://www.w3.org/2000/svg" xmlns:xlink="http://www.w3.org/1999/xlink" x="0px" y="0px"
	 viewBox="0 0 80 80" style="enable-background:new 0 0 80 80;" xml:space="preserve">
<style type="text/css">
	.st0{fill:none;stroke:#34b6e4;stroke-width:2;stroke-miterlimit:10;}
	.st1{fill:#34b6e4;}
</style>
<g>
	<path class="st0" d="M60.8,31c-1.2-9.3-8.9-16.5-18.6-16.5C31.6,14.5,23,23.1,23,33.7v2.9l-3.7,6.6c-0.6,1.1,0,2.4,1.1,3H23v6
		c0,2.5,1.5,4.8,4,4.8h7v7.8c14,2.8,20-5.4,20-5.4l0,0v-1.8v-7.7v-1.4c4-3.5,7-8.8,7-14.8C61,32.8,60.9,31.9,60.8,31"/>
</g>
<g>
	<g>
		<path class="st1" d="M42.3,21c-3.5,0-6.3,2.8-6.3,6.3c0,2.3,1.3,4.4,3.2,5.5v2.4c0,0.9,0.7,1.6,1.6,1.6H44c0.9,0,1.6-0.7,1.6-1.6
			v-2.4c1.7-1.1,3-3.1,3-5.5C48.6,23.8,45.8,21,42.3,21L42.3,21z"/>
	</g>
	<path class="st1" d="M44.3,39h-4.2c-0.2,0-0.4-0.2-0.4-0.4v-0.7c0-0.2,0.2-0.4,0.4-0.4h4.2c0.2,0,0.4,0.2,0.4,0.4v0.7
		C44.7,38.8,44.6,39,44.3,39z"/>
	<path class="st1" d="M44.3,41.1h-4.2c-0.2,0-0.4-0.2-0.4-0.4V40c0-0.2,0.2-0.4,0.4-0.4h4.2c0.2,0,0.4,0.2,0.4,0.4v0.7
		C44.7,40.9,44.6,41.1,44.3,41.1z"/>
</g>
</svg>
