<?xml version="1.0" encoding="utf-8"?>
<!-- Generator: Adobe Illustrator 19.2.0, SVG Export Plug-In . SVG Version: 6.00 Build 0)  -->
<svg version="1.1" id="Layer_1" xmlns="http://www.w3.org/2000/svg" xmlns:xlink="http://www.w3.org/1999/xlink" x="0px" y="0px"
	 viewBox="0 0 80 80" style="enable-background:new 0 0 80 80;" xml:space="preserve">
<style type="text/css">
	.st0{fill:none;stroke:#34b6e4;stroke-width:2;stroke-miterlimit:10;}
	.st1{fill:#FFFFFF;stroke:#34b6e4;stroke-width:2;stroke-miterlimit:10;}
</style>
<g>
	<path class="st0" d="M52.6,61.4c-1.4,0-2.6-0.5-3.6-1.5L28,39c-0.9,0.2-1.7,0.4-2.6,0.4c-2.6,0-5.1-1-7-2.9
		c-2.5-2.5-3.5-6.2-2.6-9.6l0.3-1.3l5.8,5.8l4.2-1.1l1.1-4.2l-5.8-5.8l1.3-0.3c0.8-0.2,1.7-0.3,2.6-0.3c2.6,0,5.1,1,7,2.9
		c2.4,2.4,3.4,5.9,2.6,9.2L56,52.9c2,2,2,5.2,0,7.2C55.2,60.9,53.9,61.4,52.6,61.4L52.6,61.4z"/>
	<path class="st1" d="M21.3,59.9l4.1-6.5l2.8-2.3l0.4,0.4L39.2,41l-2.4-2.4l3.5-3.5h0.4c0.1,0,0.3,0,0.4,0c1,0,1.9-0.4,2.6-1.1
		c0.8-0.8,1.2-1.9,1.1-3v-0.4l12.5-12.5l7.6,7.6L52.3,38.3h-0.4c-0.1,0-0.3,0-0.4,0c-1,0-1.9,0.4-2.6,1.1c-0.8,0.8-1.2,1.9-1.1,3
		v0.4l-3.5,3.5l-2.4-2.4L31.6,54.4l0.4,0.4l-2.3,2.9l-6.5,4.1L21.3,59.9L21.3,59.9z"/>
</g>
</svg>
