<?xml version="1.0" encoding="utf-8" ?>
<!-- Generator: Adobe Illustrator 19.2.0, SVG Export Plug-In . SVG Version: 6.00 Build 0)  -->
<svg version="1.1" id="Layer_1" xmlns="http://www.w3.org/2000/svg" xmlns:xlink="http://www.w3.org/1999/xlink" x="0px" y="0px"
     viewBox="0 0 80 80" style="enable-background:new 0 0 80 80;" xml:space="preserve">
<style type="text/css">
	.st0{fill:none;stroke:#34b6e4;stroke-width:2;stroke-miterlimit:10;}
	.st1{fill:#FFFFFF;}
	.st2{fill:#34b6e4;}
</style>
<g>
<path class="st0" d="M40,61c-11.5,0-21-9.4-21-21s9.5-21,21-21s21,9.4,21,21S51.5,61,40,61z" />
<path class="st0" d="M40,52c-6.6,0-12-5.4-12-12.1S33.4,28,40,28s12,5.4,12,12.1S46.6,52,40,52z" />
<circle class="st0" cx="40" cy="40" r="4.5" />
<g>
<path class="st1" d="M46.3,59.2c0-0.1-0.1-0.2-0.2-0.2c0,0,0,0-0.1,0s-0.7,0-0.8,0.1l-5.1,4.8V42.1l16,15.5l-6.3-0.2
			c-0.1-0.1-0.1,0-0.1,0c-0.1,0.1,0,0.2,0,0.3l4.7,11.1l-3.5,1.5L46.3,59.2" />
<g>
<path id="_x30_" class="st1" d="M50.3,71.3c-0.3,0-0.6-0.2-0.8-0.5l-4.3-10.2L41,65.1c-0.2,0.3-0.6,0.3-0.9,0.2s-0.5-0.4-0.5-0.8
				V40.9c0-0.3,0.2-0.7,0.5-0.8s0.7-0.1,0.9,0.2L57.7,57c0.2,0.2,0.3,0.6,0.2,0.9c-0.2,0.3-0.5,0.5-0.8,0.5L51,58.2l4.2,10.2
				c0.1,0.2,0.1,0.4,0,0.7c-0.1,0.2-0.3,0.4-0.5,0.5l-4,1.6C50.5,71.3,50.4,71.3,50.3,71.3 M45.5,58.2c0.1,0,0.1,0,0.2,0
				c0.3,0.1,0.5,0.2,0.6,0.5l4.5,10.7l2.6-1.1l-4.5-10.6c-0.1-0.3-0.1-0.6,0.1-0.8s0.4-0.4,0.7-0.4l5.3,0.2L41.3,43v19.3l3.6-3.8
				C45.1,58.3,45.3,58.2,45.5,58.2" />
<g>
<path id="_x30__1_" class="st2" d="M50.3,71.3c-0.3,0-0.6-0.2-0.8-0.5l-4.3-10.2L41,65.1c-0.2,0.3-0.6,0.3-0.9,0.2
					s-0.5-0.4-0.5-0.8V40.9c0-0.3,0.2-0.7,0.5-0.8s0.7-0.1,0.9,0.2L57.7,57c0.2,0.2,0.3,0.6,0.2,0.9c-0.2,0.3-0.5,0.5-0.8,0.5
					L51,58.2l4.2,10.2c0.1,0.2,0.1,0.4,0,0.7c-0.1,0.2-0.3,0.4-0.5,0.5l-4,1.6C50.5,71.3,50.4,71.3,50.3,71.3 M45.5,58.2
					c0.1,0,0.1,0,0.2,0c0.3,0.1,0.5,0.2,0.6,0.5l4.5,10.7l2.6-1.1l-4.5-10.6c-0.1-0.3-0.1-0.6,0.1-0.8s0.4-0.4,0.7-0.4l5.3,0.2
					L41.3,43v19.3l3.6-3.8C45.1,58.3,45.3,58.2,45.5,58.2" />
			</g>
		</g>
	</g>
</g>
</svg>
