<?xml version="1.0" encoding="utf-8"?>
<!-- Generator: Adobe Illustrator 19.2.0, SVG Export Plug-In . SVG Version: 6.00 Build 0)  -->
<svg version="1.1" id="Layer_1" xmlns="http://www.w3.org/2000/svg" xmlns:xlink="http://www.w3.org/1999/xlink" x="0px" y="0px"
	 viewBox="0 0 80 80" style="enable-background:new 0 0 80 80;" xml:space="preserve">
<style type="text/css">
	.st0{fill:#FFFFFF;stroke:#34b6e4;stroke-width:2;stroke-miterlimit:10;}
</style>
<g>
	<g>
		<path class="st0" d="M25.7,28.7c-4.5,0-6.5,3.7-6.5,7.6c0,4.8,3,6.5,3,8.1c0,0.7-0.5,2.2-1.7,2.9l-6.6,3.5c-2,1.1-1.2,6.1-1.2,6.1
			h26.1c0,0,1-5-1.2-6.1L31,47.3c-1.2-0.6-1.8-2.1-1.8-2.8c0-1.5,3.1-3,3.1-8.3C32.2,31.7,29.8,28.7,25.7,28.7z"/>
		<path class="st0" d="M54.3,28.7c-4.5,0-6.5,3.7-6.5,7.6c0,4.8,3,6.5,3,8.1c0,0.7-0.5,2.2-1.7,2.9l-6.6,3.5c-2,1.1-1.2,6.1-1.2,6.1
			h26.1c0,0,1-5-1.2-6.1l-6.6-3.5c-1.2-0.6-1.8-2.1-1.8-2.8c0-1.5,3.1-3,3.1-8.3C60.8,31.7,58.4,28.7,54.3,28.7z"/>
		<path class="st0" d="M40.2,24c-5.8,0-8.3,4.7-8.3,9.7c0,6.1,3.8,8.2,3.8,10.4c0,0.9-0.7,2.9-2.2,3.6L25,52.2
			c-2.5,1.4-1.5,7.8-1.5,7.8h33.2c0,0,1.2-6.4-1.5-7.8l-8.5-4.5c-1.6-0.8-2.3-2.7-2.3-3.5c0-1.9,3.9-3.9,3.9-10.5
			C48.5,27.8,45.4,24,40.2,24z"/>
	</g>
</g>
</svg>
