<?xml version="1.0" encoding="UTF-8" standalone="no"?>
<svg
   xmlns:dc="http://purl.org/dc/elements/1.1/"
   xmlns:cc="http://creativecommons.org/ns#"
   xmlns:rdf="http://www.w3.org/1999/02/22-rdf-syntax-ns#"
   xmlns:svg="http://www.w3.org/2000/svg"
   xmlns="http://www.w3.org/2000/svg"
   xmlns:sodipodi="http://sodipodi.sourceforge.net/DTD/sodipodi-0.dtd"
   xmlns:inkscape="http://www.inkscape.org/namespaces/inkscape"
   version="1.1"
   viewBox="-17 -25 80 80"
   xml:space="preserve"
   id="svg2"
   inkscape:version="0.91 r13725"
   sodipodi:docname="icon-webinars.svg"><metadata
     id="metadata10"><rdf:RDF><cc:Work
         rdf:about=""><dc:format>image/svg+xml</dc:format><dc:type
           rdf:resource="http://purl.org/dc/dcmitype/StillImage" /><dc:title></dc:title></cc:Work></rdf:RDF></metadata><defs
     id="defs8" /><sodipodi:namedview
     pagecolor="#ffffff"
     bordercolor="#666666"
     borderopacity="1"
     objecttolerance="10"
     gridtolerance="10"
     guidetolerance="10"
     inkscape:pageopacity="0"
     inkscape:pageshadow="2"
     inkscape:window-width="1920"
     inkscape:window-height="1017"
     id="namedview6"
     showgrid="true"
     inkscape:zoom="7.552"
     inkscape:cx="41.458499"
     inkscape:cy="33.889449"
     inkscape:window-x="-8"
     inkscape:window-y="-8"
     inkscape:window-maximized="1"
     inkscape:current-layer="svg2"
     showguides="false"><inkscape:grid
       type="xygrid"
       id="grid3338" /></sodipodi:namedview><style
     type="text/css"
     id="style3">
	.c1{fill:#34b6e4;}
</style><path
     class="c1"
     d="m 46.244802,-3.5540255 -46.59994943,0 c -1.02164197,0 -1.63108137,0.6088853 -1.63108137,1.6316354 l 0,34.2693291 c 0,1.023304 1.01720965,1.631636 2.03995978,1.631636 l 28.98604402,0 -0.09917,-2.323072 -28.21870492,0 0,-25.6086423 44.09293792,0 0,25.6091963 -1.778455,0 c -0.173413,0.494754 -0.525226,0.916375 -0.992832,1.163475 l -2.074864,1.12026 0.02105,0.03934 6.255064,0 c 1.01721,0 1.63219,-0.608886 1.63219,-1.631636 l 0,-34.2698831 c 0,-1.0227501 -0.61498,-1.6316354 -1.63219,-1.6316354 z m -38.1032568,1.052114 c 0.649884,0 1.175664,0.5257799 1.175664,1.1762179 0,0.65043816 -0.52578,1.18286646 -1.175664,1.18286646 -0.6509919,0 -1.1767718,-0.5324283 -1.1767718,-1.18286646 0,-0.650438 0.5257799,-1.1762179 1.1767718,-1.1762179 z m -3.2111912,0 c 0.650992,0 1.176772,0.5257799 1.176772,1.1762179 0,0.65043816 -0.52578,1.18286646 -1.176772,1.18286646 -0.649884,0 -1.1817584,-0.5324283 -1.1817584,-1.18286646 0,-0.650438 0.5324284,-1.1762179 1.1817584,-1.1762179 z m -4.39184172,1.1762179 c 0.00609,-0.650438 0.52633402,-1.1762179 1.17621802,-1.1762179 0.650438,0 1.1828664,0.5257799 1.1828664,1.1762179 0,0.65043816 -0.5324284,1.18286646 -1.1828664,1.18286646 -0.649884,0 -1.17621802,-0.5324283 -1.17621802,-1.18286646 z m 44.27632372,5.4871705 -44.09293792,0 0,-2.8261366 44.09293792,0 0,2.8261366 z m -4.617888,33.4033711 0,0 1.987326,3.697081 c 0.159008,0.294747 0.05097,0.665397 -0.243776,0.824405 l -1.869316,1.002805 c -0.09252,0.05152 -0.192251,0.0759 -0.290869,0.0759 -0.216074,0 -0.424946,-0.116348 -0.534091,-0.319125 l -2.844419,-5.280515 -1.433845,-2.657155 -3.415631,1.846047 c -0.08809,0.04765 -0.18671,0.07092 -0.284774,0.07092 -0.104713,0 -0.208871,-0.02659 -0.300841,-0.08033 -0.182832,-0.103604 -0.300288,-0.294747 -0.309706,-0.501402 L 30.132334,23.924487 c -0.01,-0.224384 0.111915,-0.440458 0.309152,-0.552374 0.09419,-0.06538 0.191142,-0.09363 0.28699,-0.09363 0.124104,0 0.24433,0.04765 0.350705,0.121888 l 10.299525,7.047336 c 0.172859,0.121887 0.271478,0.323002 0.262059,0.53409 -0.0089,0.216074 -0.130752,0.403338 -0.318016,0.501402 l -3.412307,1.840507 2.286506,4.241144 z M 28.726191,18.585244 18.64274,24.323393 c -0.773434,0.439904 -1.405589,0.07258 -1.405589,-0.817203 l 0,-11.442501 c 0,-0.889227 0.632709,-1.257107 1.405589,-0.817202 l 10.083451,5.738148 c 0.77288,0.440458 0.77288,1.160151 0,1.600609 z"
     id="path4"
     inkscape:connector-curvature="0"
     style="fill:#34b6e4" /></svg>