<?xml version="1.0" encoding="UTF-8" standalone="no"?>
<svg
   xmlns:dc="http://purl.org/dc/elements/1.1/"
   xmlns:cc="http://creativecommons.org/ns#"
   xmlns:rdf="http://www.w3.org/1999/02/22-rdf-syntax-ns#"
   xmlns:svg="http://www.w3.org/2000/svg"
   xmlns="http://www.w3.org/2000/svg"
   xmlns:sodipodi="http://sodipodi.sourceforge.net/DTD/sodipodi-0.dtd"
   xmlns:inkscape="http://www.inkscape.org/namespaces/inkscape"
   version="1.1"
   viewBox="0 0 80 80"
   xml:space="preserve"
   id="svg2"
   inkscape:version="0.91 r13725"
   sodipodi:docname="icon-video-library.svg"><sodipodi:namedview
     pagecolor="#ffffff"
     bordercolor="#666666"
     borderopacity="1"
     objecttolerance="10"
     gridtolerance="10"
     guidetolerance="10"
     inkscape:pageopacity="0"
     inkscape:pageshadow="2"
     inkscape:window-width="1920"
     inkscape:window-height="1017"
     id="namedview13"
     showgrid="true"
     inkscape:zoom="5.9"
     inkscape:cx="-18.668141"
     inkscape:cy="19.768838"
     inkscape:window-x="1912"
     inkscape:window-y="-8"
     inkscape:window-maximized="1"
     inkscape:current-layer="svg2"><inkscape:grid
       type="xygrid"
       id="grid3341" /></sodipodi:namedview><metadata
     id="metadata16"><rdf:RDF><cc:Work
         rdf:about=""><dc:format>image/svg+xml</dc:format><dc:type
           rdf:resource="http://purl.org/dc/dcmitype/StillImage" /><dc:title /></cc:Work></rdf:RDF></metadata><defs
     id="defs14" /><style
     type="text/css"
     id="style3">
path {fill:#34b6e4;}
circle {fill:#34b6e4;}
polygon {fill:#34b6e4;}
</style><g
     id="g6"
     transform="matrix(0.71476449,0,0,0.71476449,11.16369,16.645147)"><path
       id="path6"
       d="m 37.3,54.5 0,0 C 35.5,54.5 34,53.1 34,51.4 l 0,-11.1 c 0,-1.7 1.5,-3.1 3.3,-3.1 0.5,0 1,0.1 1.5,0.4 l 10.7,5.5 c 1,0.5 1.6,1.5 1.6,2.7 0,1.2 -0.6,2.2 -1.7,2.8 l -10.6,5.6 c -0.5,0.1 -1,0.3 -1.5,0.3 z m 0,-15.3 c -0.6,0 -1.3,0.4 -1.3,1.1 l 0,11.1 c 0,0.6 0.7,1.1 1.3,1.1 l 0,0 c 0.2,0 0.4,0 0.5,-0.1 l 10.6,-5.6 c 0.4,-0.2 0.6,-0.6 0.6,-1 0,-0.2 -0.1,-0.6 -0.5,-0.9 L 37.8,39.4 c -0.2,-0.2 -0.4,-0.2 -0.5,-0.2 z"
       inkscape:connector-curvature="0"
       style="fill:#34b6e4" /><path
       id="path10"
       d="M 66.9,68 16.1,68 C 14.4,68 13,66.6 13,64.9 L 13,25.1 C 13,23.4 14.4,22 16.1,22 l 50.9,0 0,2 -50.9,0 C 15.5,24 15,24.5 15,25.1 l 0,39.8 c 0,0.6 0.5,1.1 1.1,1.1 l 50.8,0 c 0.6,0 1.1,-0.5 1.1,-1.1 l 0,-29.9 2,0 0,29.9 c 0,1.7 -1.4,3.1 -3.1,3.1 z"
       inkscape:connector-curvature="0"
       style="fill:#34b6e4" /><path
       id="path14"
       d="m 67,19 -2,0 c 0,-1 -0.4,-1 -0.9,-1 L 18.9,18 C 18.4,18 18,18 18,19 l -2,0 c 0,-2 1.3,-3 2.9,-3 l 45.3,0 c 1.5,0 2.8,1 2.8,3 z"
       inkscape:connector-curvature="0"
       style="fill:#34b6e4" /><path
       id="path18"
       d="m 62,14 -2,0 c 0,-1 -0.4,-1 -0.5,-1 l -36,0 C 23.4,13 23,13 23,14 l -2,0 c 0,-2 1.1,-3 2.5,-3 l 36.1,0 c 1.3,0 2.4,1 2.4,3 z"
       inkscape:connector-curvature="0"
       style="fill:#34b6e4" /><polygon
       id="polygon22"
       points="74.7,38.3 73.3,39.7 69,35.4 64.7,39.7 63.3,38.3 69,32.6 "
       style="fill:#34b6e4" /></g></svg>