<?xml version="1.0" encoding="utf-8"?>
<!-- Generator: Adobe Illustrator 19.2.0, SVG Export Plug-In . SVG Version: 6.00 Build 0)  -->
<svg version="1.1" id="Layer_1" xmlns="http://www.w3.org/2000/svg" xmlns:xlink="http://www.w3.org/1999/xlink" x="0px" y="0px"
	 viewBox="0 0 80 80" style="enable-background:new 0 0 80 80;" xml:space="preserve">
<style type="text/css">
	.st0{fill:none;stroke:#34b6e4;stroke-width:2;stroke-miterlimit:10;}
	.st1{fill:none;stroke:#34b6e4;stroke-width:2;stroke-linecap:round;stroke-linejoin:round;stroke-miterlimit:10;}
	.st2{fill:#FFFFFF;stroke:#34b6e4;stroke-width:2;stroke-miterlimit:10;}
</style>
<g>
	<path class="st0" d="M54,59.4v-1.8v-7.7v-1.4c4-3.5,7-8.8,7-14.8c0-10.6-8.2-19.2-18.8-19.2S23,23.1,23,33.7v2.9l-3.7,6.6
		c-0.6,1.1,0,2.4,1.1,3H23v6c0,2.5,1.5,4.8,4,4.8h7v7.8C48,67.6,54,59.4,54,59.4z"/>
	<path class="st1" d="M45.5,38.7c0,0-5.4,11.1-17.5,11.1"/>
	<path class="st1" d="M48.6,31.9V15.6"/>
	<path class="st1" d="M42.6,31.9V15.1"/>
	<path class="st2" d="M45.6,46.3c-4.1,0-7.5-3.4-7.5-7.5s3.4-7.5,7.5-7.5s7.5,3.4,7.5,7.5S49.7,46.3,45.6,46.3z"/>
</g>
</svg>
