<?xml version="1.0" encoding="UTF-8" standalone="no"?>
<svg
   xmlns:dc="http://purl.org/dc/elements/1.1/"
   xmlns:cc="http://creativecommons.org/ns#"
   xmlns:rdf="http://www.w3.org/1999/02/22-rdf-syntax-ns#"
   xmlns:svg="http://www.w3.org/2000/svg"
   xmlns="http://www.w3.org/2000/svg"
   xmlns:sodipodi="http://sodipodi.sourceforge.net/DTD/sodipodi-0.dtd"
   xmlns:inkscape="http://www.inkscape.org/namespaces/inkscape"
   version="1.1"
   viewBox="0 0 100 100"
   style="enable-background:new 0 0 100 100;"
   xml:space="preserve"
   id="svg2"
   inkscape:version="0.91 r13725"
   sodipodi:docname="icon-faq.svg"><metadata
     id="metadata23"><rdf:RDF><cc:Work
         rdf:about=""><dc:format>image/svg+xml</dc:format><dc:type
           rdf:resource="http://purl.org/dc/dcmitype/StillImage" /></cc:Work></rdf:RDF></metadata><defs
     id="defs21" /><sodipodi:namedview
     pagecolor="#ffffff"
     bordercolor="#666666"
     borderopacity="1"
     objecttolerance="10"
     gridtolerance="10"
     guidetolerance="10"
     inkscape:pageopacity="0"
     inkscape:pageshadow="2"
     inkscape:window-width="1920"
     inkscape:window-height="1017"
     id="namedview19"
     showgrid="true"
     inkscape:zoom="6.675088"
     inkscape:cx="32.837718"
     inkscape:cy="45.043328"
     inkscape:window-x="1912"
     inkscape:window-y="-8"
     inkscape:window-maximized="1"
     inkscape:current-layer="svg2"><inkscape:grid
       type="xygrid"
       id="grid3351" /></sodipodi:namedview><style
     type="text/css"
     id="style3">
    path {fill:#34b6e4;}
    circle {fill:#34b6e4;}
</style><g
     id="g5"
     transform="matrix(0.84569791,0,0,0.84569791,8.9552365,14.206465)"><path
       id="path4"
       d="m 59.763559,56.777122 0,15.5 c 0,2.9 -2.5,5.2 -4.6,5.2 l -26.5,0 c -0.4,0 -0.7,0.1 -1,0.4 l -5.6,5.1 0.8,-3.7 c 0.1,-0.4 0,-0.9 -0.3,-1.2 -0.3,-0.3 -0.7,-0.5 -1.2,-0.5 l -2.5,0 c -3.4,0 -5.9,-2.2 -5.9,-5.2 l 0,-16.9 c 0,-2.9 2.3,-5.2 5.2,-5.2 l 7,0 c -0.2,-0.5 -0.5,-1 -0.6,-1.5 -0.2,-0.5 -0.3,-1 -0.4,-1.5 l -5.9,0 c -4.5,0 -8.2,3.7 -8.2,8.2 l 0,16.9 c 0,4.7 3.8,8.2 8.9,8.2 l 0.7,0 -1.3,6.5 c -0.1,0.6 0.2,1.3 0.7,1.6 0.2,0.1 0.5,0.199997 0.7,0.199997 0.4,0 0.7,-0.1 1,-0.399997 l 8.5,-7.9 26,0 c 4,0 7.6,-3.8 7.6,-8.2 l 0,-15.6 -1.5,0 -1.6,0 z"
       inkscape:connector-curvature="0"
       style="fill:#34b6e4" /><path
       id="path6"
       d="m 30.163559,63.477122 c 0.5,-0.7 0.9,-1.3 0.9,-2.3 0,-2.2 -1.7,-3.5 -3.8,-3.5 -1.1,0 -2,0.4 -2.7,1 -0.7,0.7 -1,1.5 -1,2.1 0,0.4 0.1,0.6 0.3,0.8 0.2,0.2 0.5,0.3 0.8,0.3 0.3,0 0.6,-0.1 0.8,-0.3 0.1,-0.1 0.3,-0.4 0.3,-0.6 0.1,-0.4 0.2,-0.6 0.5,-0.9 0.3,-0.3 0.6,-0.4 1.1,-0.4 0.9,0 1.4,0.6 1.4,1.4 0,0.5 -0.2,0.9 -0.5,1.3 l -1.3,1.7 c -0.5,0.6 -0.6,1.1 -0.6,1.6 0,0.3 0.1,0.6 0.3,0.8 0.2,0.2 0.5,0.4 0.9,0.4 0.4,0 0.7,-0.1 0.9,-0.3 0.2,-0.2 0.3,-0.4 0.4,-0.7 0.1,-0.4 0.2,-0.6 0.5,-1 l 0.8,-1.4 z"
       inkscape:connector-curvature="0"
       style="fill:#34b6e4" /><circle
       id="circle8"
       r="1.4"
       cy="69.277122"
       cx="27.36356"
       style="fill:#34b6e4" /><path
       id="path10"
       d="m 39.563559,63.477122 c 0.5,-0.7 0.9,-1.3 0.9,-2.3 0,-2.2 -1.7,-3.5 -3.8,-3.5 -1.1,0 -2,0.4 -2.7,1 -0.7,0.7 -1,1.5 -1,2.1 0,0.4 0.1,0.6 0.3,0.8 0.2,0.2 0.5,0.3 0.8,0.3 0.3,0 0.6,-0.1 0.8,-0.3 0.1,-0.1 0.3,-0.4 0.3,-0.6 0.1,-0.4 0.2,-0.6 0.5,-0.9 0.3,-0.3 0.6,-0.4 1.1,-0.4 0.9,0 1.4,0.6 1.4,1.4 0,0.5 -0.2,0.9 -0.5,1.3 l -1.3,1.7 c -0.6,0.7 -0.8,1.2 -0.8,1.7 0,0.3 0.1,0.6 0.3,0.8 0.2,0.2 0.5,0.4 0.9,0.4 0.4,0 0.7,-0.1 0.9,-0.3 0.2,-0.2 0.3,-0.4 0.4,-0.7 0.1,-0.4 0.2,-0.6 0.5,-1 l 1,-1.5 z"
       inkscape:connector-curvature="0"
       style="fill:#34b6e4" /><circle
       id="circle12"
       r="1.4"
       cy="69.277122"
       cx="36.763561"
       style="fill:#34b6e4" /><circle
       id="circle14"
       r="1.4"
       cy="69.277122"
       cx="46.163563"
       style="fill:#34b6e4" /><path
       id="path16"
       d="m 48.963559,63.477122 c 0.5,-0.7 0.9,-1.3 0.9,-2.3 0,-2.2 -1.7,-3.5 -3.8,-3.5 -1.1,0 -2,0.4 -2.7,1 -0.7,0.7 -1,1.5 -1,2.1 0,0.4 0.1,0.6 0.3,0.8 0.2,0.2 0.5,0.3 0.8,0.3 0.3,0 0.6,-0.1 0.8,-0.3 0.1,-0.1 0.3,-0.4 0.3,-0.6 0.1,-0.4 0.2,-0.6 0.5,-0.9 0.3,-0.3 0.6,-0.4 1.1,-0.4 0.9,0 1.4,0.6 1.4,1.4 0,0.5 -0.2,0.9 -0.5,1.3 l -1.3,1.7 c -0.5,0.6 -0.6,1.1 -0.6,1.6 0,0.3 0.1,0.6 0.3,0.8 0.2,0.2 0.5,0.4 0.9,0.4 0.4,0 0.7,-0.1 0.9,-0.3 0.2,-0.2 0.3,-0.4 0.4,-0.7 0.1,-0.4 0.2,-0.6 0.5,-1 l 0.8,-1.4 z"
       inkscape:connector-curvature="0"
       style="fill:#34b6e4" /><path
       id="path18"
       d="m 78.263559,14.677122 -42.1,0 c -5.1,0 -9.3,4.2 -9.3,9.3 l 0,20.5 c 0,0.9 0.1,1.8 0.4,2.7 0.2,0.5 0.4,1 0.6,1.5 0.3,0.5 0.6,1 0.9,1.5 1.6,2.2 4,3.6 6.6,3.6 l 24.2,0 1.6,0 1.5,0 2.9,0 10,9.2 c 0.3,0.3 0.6,0.4 1,0.4 0.3,0 0.5,-0.1 0.7,-0.2 0.6,-0.3 0.9,-1 0.7,-1.6 l -1.6,-7.8 1.1,0 c 5.7,0 10.1,-4 10.1,-9.3 l 0,-20.5 c 0,-5.1 -4.2,-9.3 -9.3,-9.3 z m 6.3,29.8 c 0,3.6 -3,6.3 -7.1,6.3 l -2.9,0 c -0.5,0 -0.9,0.2 -1.2,0.5 -0.3,0.3 -0.4,0.8 -0.3,1.2 l 1,5.1 -7,-6.5 c -0.3,-0.3 -0.6,-0.4 -1,-0.4 l -4.7,0 -1.9,0 -2.5,0 -21.6,0 c -0.7,0 -1.5,-0.2 -2.2,-0.6 -0.7,-0.4 -1.3,-0.9 -1.8,-1.5 -0.4,-0.4 -0.7,-1 -0.9,-1.5 -0.4,-0.8 -0.6,-1.7 -0.6,-2.7 l 0,-20.4 c 0,-3.5 2.8,-6.3 6.3,-6.3 l 42.1,0 c 3.5,0 6.3,2.8 6.3,6.3 l 0,20.5 z"
       inkscape:connector-curvature="0"
       style="fill:#34b6e4" /><path
       id="path20"
       d="m 76.363559,25.277122 -38.4,0 c -0.3,0 -0.5,0.2 -0.5,0.5 0,0.3 0.2,0.5 0.5,0.5 l 38.3,0 c 0.3,0 0.5,-0.2 0.5,-0.5 0,-0.3 -0.1,-0.5 -0.4,-0.5 z"
       inkscape:connector-curvature="0"
       style="fill:#34b6e4" /><path
       id="path22"
       d="m 76.363559,29.277122 -38.4,0 c -0.3,0 -0.5,0.2 -0.5,0.5 0,0.3 0.2,0.5 0.5,0.5 l 38.3,0 c 0.3,0 0.5,-0.2 0.5,-0.5 0,-0.3 -0.1,-0.5 -0.4,-0.5 z"
       inkscape:connector-curvature="0"
       style="fill:#34b6e4" /><path
       id="path24"
       d="m 76.363559,33.277122 -38.4,0 c -0.3,0 -0.5,0.2 -0.5,0.5 0,0.3 0.2,0.5 0.5,0.5 l 38.3,0 c 0.3,0 0.5,-0.2 0.5,-0.5 0,-0.3 -0.1,-0.5 -0.4,-0.5 z"
       inkscape:connector-curvature="0"
       style="fill:#34b6e4" /><path
       id="path26"
       d="m 59.663559,37.277122 -21.7,0 c -0.3,0 -0.5,0.2 -0.5,0.5 0,0.3 0.2,0.5 0.5,0.5 l 21.7,0 c 0.3,0 0.5,-0.2 0.5,-0.5 0,-0.3 -0.2,-0.5 -0.5,-0.5 z"
       inkscape:connector-curvature="0"
       style="fill:#34b6e4" /></g></svg>