<?xml version="1.0" encoding="UTF-8" standalone="no"?>
<svg
   xmlns:dc="http://purl.org/dc/elements/1.1/"
   xmlns:cc="http://creativecommons.org/ns#"
   xmlns:rdf="http://www.w3.org/1999/02/22-rdf-syntax-ns#"
   xmlns:svg="http://www.w3.org/2000/svg"
   xmlns="http://www.w3.org/2000/svg"
   viewBox="0 0 348.75 45"
   height="45"
   width="348.75"
   xml:space="preserve"
   version="1.1"
   id="svg2"><metadata
     id="metadata8"><rdf:RDF><cc:Work
         rdf:about=""><dc:format>image/svg+xml</dc:format><dc:type
           rdf:resource="http://purl.org/dc/dcmitype/StillImage" /></cc:Work></rdf:RDF></metadata><defs
     id="defs6" /><g
     transform="matrix(1.25,0,0,-1.25,0,45)"
     id="g10"><g
       transform="scale(0.1,0.1)"
       id="g12"><path
         id="path14"
         style="fill:#244a8f;fill-opacity:1;fill-rule:nonzero;stroke:none"
         d="m 95.0977,130.234 151.0393,0 -75.516,171.77 -75.5233,-171.77 z m 163.1213,-27.617 -175.2112,0 -31.0508,-69.9139 -31.957,0 135.508,302.1129 30.219,0 135.5,-302.1129 -31.918,0 -31.09,69.9139" /><path
         id="path16"
         style="fill:#244a8f;fill-opacity:1;fill-rule:nonzero;stroke:none"
         d="M 610.645,73.707 C 580.023,43.0664 541.188,27.9531 500.605,27.9531 c -104.429,0 -156.66,69.9219 -157.082,154.0739 -0.437,82.426 52.2,157.098 157.082,157.098 40.161,0 80.7,-14.238 107.04,-45.32 l -18.567,-18.563 c -24.582,24.172 -56.113,36.262 -88.473,36.262 -84.14,0 -126.89,-62.149 -126.89,-129.047 0,-70.773 42.75,-126.4492 126.89,-126.4492 32.36,0 66.461,12.9375 90.629,37.1172 l 19.411,-19.418" /><path
         id="path18"
         style="fill:#244a8f;fill-opacity:1;fill-rule:nonzero;stroke:none"
         d="m 676.699,185.48 c -0.437,-66.46 40.571,-127.7417 123.02,-127.7417 82.422,0 123.41,61.7107 122.551,127.3127 -0.418,68.617 -39.692,126.027 -122.551,126.027 -75.989,0 -123.457,-56.98 -123.02,-125.598 m 276.211,-0.863 c 0,-36.25 -11.211,-73.367 -33.672,-101.8592 L 956.797,46.0898 936.07,24.5078 898.109,61.6172 C 873.93,41.7695 840.258,29.2461 799.719,29.2461 c -104.031,0 -154.078,74.2309 -153.231,156.6599 0.422,79.852 50.93,153.653 153.231,153.653 103.129,0 153.191,-73.801 153.191,-154.942" /><path
         id="path20"
         style="fill:#244a8f;fill-opacity:1;fill-rule:nonzero;stroke:none"
         d="m 1261.82,334.809 0,-184.289 c 0,-81.5708 -53.53,-120.8403 -119.12,-120.8403 -65.62,0 -120.86,39.2695 -120.86,120.8403 l 0,184.289 30.22,0 0,-184.289 c 0,-57.3911 39.27,-92.7895 90.64,-92.7895 45.75,0 88.9,29.789 88.9,92.7895 l 0,184.289 30.22,0" /><path
         id="path22"
         style="fill:#244a8f;fill-opacity:1;fill-rule:nonzero;stroke:none"
         d="m 1348.96,32.7109 30.2188,0 0,302.098 -30.2188,0 0,-302.098 z" /><path
         id="path24"
         style="fill:#244a8f;fill-opacity:1;fill-rule:nonzero;stroke:none"
         d="m 1656.88,272.668 c -17.69,28.48 -54.79,37.969 -86.74,38.406 -37.11,0 -85.03,-10.789 -85.03,-55.25 0,-35.39 38.84,-44.879 85.89,-53.082 59.54,-10.355 119.99,-23.738 119.99,-88.035 -0.44,-68.1914 -66.05,-86.7539 -120.85,-86.7539 -50.92,0 -102.72,18.5625 -126.02,66.8907 l 26.32,14.2542 c 20.71,-38.8441 63.01,-52.2347 99.7,-52.2347 37.11,0 90.18,9.9336 90.18,58.2737 0.44,41 -45.32,51.355 -92.35,59.558 -56.95,9.918 -113.09,22.438 -113.09,81.129 -0.84,63.446 63.9,83.731 114.82,83.731 41.42,0 85.88,-11.219 112.64,-52.649 l -25.46,-14.238" /><path
         id="path26"
         style="fill:#244a8f;fill-opacity:1;fill-rule:nonzero;stroke:none"
         d="m 1759.86,32.7109 30.2109,0 0,302.098 -30.2109,0 0,-302.098 z" /><path
         id="path28"
         style="fill:#244a8f;fill-opacity:1;fill-rule:nonzero;stroke:none"
         d="m 2014.27,55.582 c 82.42,0 122.14,62.578 122.55,127.309 0,67.757 -40.13,128.179 -122.55,128.609 -81.14,0 -123.88,-57.398 -123.01,-128.609 0.86,-66.039 40.57,-127.309 123.01,-127.309 m 152.76,127.309 C 2166.6,103.91 2116.54,27.0898 2014.27,27.0898 c -102.71,0 -153.22,76.8202 -153.22,156.2302 0,85.02 55.25,156.66 153.22,156.66 102.27,-0.429 153.19,-76.382 152.76,-157.089" /><path
         id="path30"
         style="fill:#55bdee;fill-opacity:1;fill-rule:nonzero;stroke:none"
         d="m 2338.09,27.1563 319.922,0 0,62.6055 -319.922,0 0,-62.6055 z" /><path
         id="path32"
         style="fill:#55bdee;fill-opacity:1;fill-rule:nonzero;stroke:none"
         d="m 2446.07,152.328 319.91,0 0,62.5742 -319.91,0 0,-62.5742 z" /><path
         id="path34"
         style="fill:#55bdee;fill-opacity:1;fill-rule:nonzero;stroke:none"
         d="m 2338.09,277.477 319.922,0 0,62.5234 -319.922,0 0,-62.5234 z" /></g></g></svg>